<svg id="Layer_1" enable-background="new 0 0 800 800" viewBox="0 0 800 800" xmlns="http://www.w3.org/2000/svg"><g fill="#1c274d"><path d="m400 758.3c-80.8 0-139.2 0-186.2-6.3-52.9-7.1-88.6-22.5-116-49.8-27.3-27.3-42.7-63.1-49.8-116-6.3-47-6.3-105.4-6.3-186.2s0-139.2 6.3-186.2c7.1-52.9 22.5-88.6 49.8-116s63.1-42.7 116-49.8c47-6.3 105.4-6.3 186.2-6.3s139.2 0 186.2 6.3c52.9 7.1 88.6 22.5 116 49.8 27.3 27.3 42.7 63.1 49.8 116 6.3 47 6.3 105.4 6.3 186.2s0 139.2-6.3 186.2c-7.1 52.9-22.5 88.6-49.8 116-27.3 27.3-63.1 42.7-116 49.8-47 6.3-105.4 6.3-186.2 6.3zm0-666.6c-150 0-225.3 0-266.8 41.5s-41.5 116.8-41.5 266.8 0 225.3 41.5 266.8c41.5 41.5 116.8 41.5 266.8 41.5s225.3 0 266.8-41.5 41.5-116.8 41.5-266.8 0-225.3-41.5-266.8c-41.5-41.5-116.8-41.5-266.8-41.5z"/><path d="m600 608.3h-133.3c-13.8 0-25-11.2-25-25s11.2-25 25-25h133.3c13.8 0 25 11.2 25 25s-11.2 25-25 25zm-283.3 0c-6.4 0-12.8-2.4-17.7-7.3l-32.3-32.3-32.4 32.3c-9.8 9.8-25.6 9.8-35.4 0s-9.8-25.6 0-35.4l32.3-32.3-32.2-32.3c-9.8-9.8-9.8-25.6 0-35.4s25.6-9.8 35.4 0l32.3 32.3 32.3-32.3c9.8-9.8 25.6-9.8 35.4 0s9.8 25.6 0 35.4l-32.4 32.3 32.3 32.3c9.8 9.8 9.8 25.6 0 35.4-4.8 4.9-11.2 7.3-17.6 7.3zm283.3-100h-133.3c-13.8 0-25-11.2-25-25s11.2-25 25-25h133.3c13.8 0 25 11.2 25 25s-11.2 25-25 25zm-333.3-133.3c-13.8 0-25-11.2-25-25v-41.7h-41.7c-13.8 0-25-11.2-25-25s11.2-25 25-25h41.7v-41.7c0-13.8 11.2-25 25-25s25 11.2 25 25v41.7h41.7c13.8 0 25 11.2 25 25s-11.2 25-25 25h-41.7v41.7c0 13.8-11.2 25-25 25zm333.3-66.7h-133.3c-13.8 0-25-11.2-25-25s11.2-25 25-25h133.3c13.8 0 25 11.2 25 25s-11.2 25-25 25z"/></g></svg>