<svg fill="none" height="512" viewBox="0 0 24 24" width="512" xmlns="http://www.w3.org/2000/svg"><g fill="rgb(0,0,0)"><path d="m22 22.75h-17c-2.07 0-3.75-1.68-3.75-3.75v-17c0-.41.34-.75.75-.75s.75.34.75.75v17c0 1.24 1.01 2.25 2.25 2.25h17c.41 0 .75.34.75.75s-.34.75-.75.75z"/><path d="m4.99982 17.7501c-.17 0-.35-.06-.49-.18-.31-.27-.35-.74-.08-1.06l4.59-5.36c.5-.58 1.21998-.93 1.97998-.96.76-.02 1.51.26 2.05.8l.95.95c.25.25.58.37.93.37.35-.01.67-.17.9-.44l4.59-5.36002c.27-.31.74-.35002 1.06-.08002.31.27.35.74.08 1.06l-4.59 5.36004c-.5.58-1.22.93-1.98.96-.76.02-1.51-.26-2.05-.8l-.94-.95c-.25-.25-.58-.38-.93-.37s-.67.17-.9.44l-4.58998 5.36c-.16.17-.37.26-.58.26z"/></g></svg>