<svg id="grid" viewBox="0 0 32 32" xmlns="http://www.w3.org/2000/svg"><g><path d="m25.03 12a9.014 9.014 0 0 1 -2.23 5.94 8.149 8.149 0 0 0 -1.57 2.9l-.48 1.45a1 1 0 0 1 -.95.69h-7.57a1 1 0 0 1 -.95-.69l-.48-1.45a8.063 8.063 0 0 0 -1.57-2.9 9.012 9.012 0 1 1 15.8-5.94z" fill="#efb04b"/><path d="m23.69 13.07a8.969 8.969 0 0 1 -2.23 5.93 8.288 8.288 0 0 0 -1.57 2.91l-.35 1.07h-7.31a1 1 0 0 1 -.95-.69l-.48-1.45a8.063 8.063 0 0 0 -1.57-2.9 9 9 0 0 1 .51-12.4 9.016 9.016 0 0 1 13.95 7.53z" fill="#fec458"/><path d="m17.5 15a1 1 0 0 0 -1 1v.155a.97.97 0 0 0 -.207.138l-.793.793v-1.086a1 1 0 0 0 -2 0v6a1 1 0 0 0 2 0v-2.155a.97.97 0 0 0 .207-.138l.793-.793v3.086a1 1 0 0 0 2 0v-6a1 1 0 0 0 -1-1z" fill="#efb04b"/><path d="m20.165 25.7a1 1 0 0 0 -.764-.355h-6.95a1 1 0 0 0 -.986 1.168l.189 1.109a4.049 4.049 0 0 0 4 3.376h.546a4.048 4.048 0 0 0 4-3.375l.19-1.11a1 1 0 0 0 -.225-.813z" fill="#b2c9db"/><path d="m21.32 23.77v1.23a1.9 1.9 0 0 1 -1.9 1.9h-6.84a1.848 1.848 0 0 1 -1.45-.68 1.889 1.889 0 0 1 -.45-1.22v-1.23a1.9 1.9 0 0 1 1.9-1.9h6.84a1.785 1.785 0 0 1 .83.2 1.868 1.868 0 0 1 1.07 1.7z" fill="#c5d9ea"/><path d="m20.7 23.28v1.23a1.9 1.9 0 0 1 -1.9 1.9h-6.85a1.9 1.9 0 0 1 -.82-.19 1.889 1.889 0 0 1 -.45-1.22v-1.23a1.9 1.9 0 0 1 1.9-1.9h6.84a1.785 1.785 0 0 1 .83.2 1.811 1.811 0 0 1 .45 1.21z" fill="#d9e8f8"/><g fill="#efb04b"><g><path d="m8 5a1 1 0 0 1 -.707-.293l-2-2a1 1 0 0 1 1.414-1.414l2 2a1 1 0 0 1 -.707 1.707z"/><path d="m4.943 9.413a1.016 1.016 0 0 1 -.276-.039l-2.884-.825a1 1 0 1 1 .55-1.923l2.884.825a1 1 0 0 1 -.274 1.962z"/><path d="m2 15a1 1 0 0 1 -.316-1.949l3-1a1 1 0 1 1 .632 1.9l-3 1a1 1 0 0 1 -.316.049z"/></g><g><path d="m24 5a1 1 0 0 1 -.707-1.707l2-2a1 1 0 0 1 1.414 1.414l-2 2a1 1 0 0 1 -.707.293z"/><path d="m27.057 9.413a1 1 0 0 1 -.274-1.962l2.884-.825a1 1 0 1 1 .55 1.923l-2.884.825a1.016 1.016 0 0 1 -.276.039z"/><path d="m30 15a1 1 0 0 1 -.316-.051l-3-1a1 1 0 1 1 .632-1.9l3 1a1 1 0 0 1 -.316 1.951z"/></g></g></g></svg>