<svg id="Layer_1" height="512" viewBox="0 0 48 48" width="512" xmlns="http://www.w3.org/2000/svg"><g><g><path d="m39 0h2v48h-2z" fill="#d1dee0"/></g><g><path d="m31 0h2v48h-2z" fill="#d1dee0"/></g><g><path d="m23 0h2v48h-2z" fill="#d1dee0"/></g><g><path d="m15 0h2v48h-2z" fill="#d1dee0"/></g><g><path d="m7 0h2v48h-2z" fill="#d1dee0"/></g><g><path d="m0 39h48v2h-48z" fill="#d1dee0"/></g><g><path d="m0 31h48v2h-48z" fill="#d1dee0"/></g><g><path d="m0 23h48v2h-48z" fill="#d1dee0"/></g><g><path d="m0 15h48v2h-48z" fill="#d1dee0"/></g><g><path d="m0 7h48v2h-48z" fill="#d1dee0"/></g><g><path d="m9 40.1-2-.1c.3-4 2.1-24.2 8.9-24.9 3.4-.4 6.1 4 8.9 8.6 2.3 3.7 4.9 8 7 7.5 4-1 6.6-14.7 7.2-23.1l2 .2c-.2 2.4-2.1 23.3-8.8 24.9-3.5.8-6.2-3.6-9.2-8.4-2.3-3.7-4.8-7.8-7-7.6-3.7.2-6.3 13.5-7 22.9z" fill="#467487"/></g><g><circle cx="8" cy="40" fill="#fff" r="3"/><path d="m8 44c-2.2 0-4-1.8-4-4s1.8-4 4-4 4 1.8 4 4-1.8 4-4 4zm0-6c-1.1 0-2 .9-2 2s.9 2 2 2 2-.9 2-2-.9-2-2-2z" fill="#908ec3"/></g><g><circle cx="16" cy="16" fill="#fff" r="3"/><path d="m16 20c-2.2 0-4-1.8-4-4s1.8-4 4-4 4 1.8 4 4-1.8 4-4 4zm0-6c-1.1 0-2 .9-2 2s.9 2 2 2 2-.9 2-2-.9-2-2-2z" fill="#f475b1"/></g><g><circle cx="32" cy="32" fill="#fff" r="3"/><path d="m32 36c-2.2 0-4-1.8-4-4s1.8-4 4-4 4 1.8 4 4-1.8 4-4 4zm0-6c-1.1 0-2 .9-2 2s.9 2 2 2 2-.9 2-2-.9-2-2-2z" fill="#fbcf4a"/></g><g><circle cx="40" cy="8" fill="#fff" r="3"/><path d="m40 12c-2.2 0-4-1.8-4-4s1.8-4 4-4 4 1.8 4 4-1.8 4-4 4zm0-6c-1.1 0-2 .9-2 2s.9 2 2 2 2-.9 2-2-.9-2-2-2z" fill="#3bb3c0"/></g></g></svg>