<svg id="Layer_1" height="512" viewBox="0 0 512 512" width="512" xmlns="http://www.w3.org/2000/svg" data-name="Layer 1"><path d="m256 0c141.382 0 256 114.587 256 256.035 0 141.376-114.618 255.965-256 255.965s-256-114.589-256-255.965c0-141.448 114.622-256.035 256-256.035zm65.07 415a8.353 8.353 0 0 0 8.379-8.335v-130a8.351 8.351 0 0 0 -8.379-8.332h-44.593a8.348 8.348 0 0 0 -8.349 8.332v130a8.347 8.347 0 0 0 8.349 8.335zm-85.55-186.163h-44.62a8.346 8.346 0 0 0 -8.35 8.335v169.492a8.347 8.347 0 0 0 8.35 8.336h44.62a8.347 8.347 0 0 0 8.35-8.335v-169.494a8.35 8.35 0 0 0 -8.35-8.335zm171.157-39.491h-44.65a8.324 8.324 0 0 0 -8.321 8.335v208.983a8.322 8.322 0 0 0 8.321 8.336h44.649a8.322 8.322 0 0 0 8.324-8.336v-208.984a8.324 8.324 0 0 0 -8.321-8.335zm8.323-84.012a8.324 8.324 0 0 0 -8.324-8.334h-44.855a8.336 8.336 0 0 0 0 16.671h26.573l-88.859 82-84.905-39.2a8.36 8.36 0 0 0 -8.994 1.3l-94.895 83.071a8.353 8.353 0 0 0 -.762 11.763 8.319 8.319 0 0 0 11.748.782l90.823-79.511 85.05 39.268a8.377 8.377 0 0 0 9.17-1.445l91.556-84.514v22.987a8.335 8.335 0 0 0 16.67 0v-44.838zm-309.679 309.666h44.649a8.331 8.331 0 0 0 8.321-8.335v-90.5a8.333 8.333 0 0 0 -8.321-8.335h-44.649a8.324 8.324 0 0 0 -8.321 8.33v90.5a8.322 8.322 0 0 0 8.321 8.34z" fill="#0a9e4d" fill-rule="evenodd"/></svg>